<svg width="142" height="133" viewBox="0 0 142 133" fill="none" xmlns="http://www.w3.org/2000/svg">
<path d="M12.5165 51.6364H95.6263H105.89C100.195 51.6364 95.3759 47.4713 95.0004 42.2791L93.3733 16.8887H0L1.62715 42.222C2.00264 47.4142 6.82151 51.6364 12.5165 51.6364Z" fill="#1FB299"/>
<path opacity="0.6" d="M12.5165 51.6364H95.6263H105.89C100.195 51.6364 95.3759 47.4713 95.0004 42.2791L93.3733 16.8887H0L1.62715 42.222C2.00264 47.4142 6.82151 51.6364 12.5165 51.6364Z" fill="white"/>
<path d="M112.837 0H29.7268C24.0318 0 19.7136 4.16516 20.0891 9.35736L22.2169 42.2222C22.5298 47.4144 18.2116 51.6366 12.5166 51.6366H22.7802H105.89C111.585 51.6366 115.903 47.4715 115.528 42.2793L115.778 45.8168L113.4 9.35736C113.087 4.16516 117.468 0 123.1 0H112.837Z" fill="#1FB299"/>
<path d="M123.1 0H39.9906H29.7271C35.4221 0 40.2409 4.16516 40.6164 9.35736L48.627 133H142L133.99 9.35736C133.677 4.16516 128.795 0 123.1 0Z" fill="#1FB299"/>
<path opacity="0.8" d="M123.1 0H39.9906H29.7271C35.4221 0 40.2409 4.16516 40.6164 9.35736L48.627 133H142L133.99 9.35736C133.677 4.16516 128.795 0 123.1 0Z" fill="white"/>
<path d="M72.032 35.1467H54.6966L53.6953 19.3989H71.0307L72.032 35.1467ZM56.6367 33.3208H69.9042L69.0906 21.2248H55.8231L56.6367 33.3208Z" fill="white"/>
<path d="M74.4734 72.348H57.138L56.1367 56.5432H73.4721L74.4734 72.348ZM59.0781 70.4651H72.3456L71.5321 58.369H58.2645L59.0781 70.4651Z" fill="white"/>
<path d="M76.8509 109.492H59.5155L58.5142 93.6875H75.8495L76.8509 109.492ZM61.4555 107.609H74.7231L73.9095 95.5133H60.7046L61.4555 107.609Z" fill="white"/>
<path d="M120.347 19.3989H80.4814V21.2818H120.347V19.3989Z" fill="white"/>
<path d="M116.154 26.3606H80.9824V28.2435H116.154V26.3606Z" fill="white"/>
<path d="M121.285 33.321H81.4199V35.2039H121.285V33.321Z" fill="white"/>
<path d="M122.787 56.5432H82.9224V58.4261H122.787V56.5432Z" fill="white"/>
<path d="M106.766 63.5046H83.3599V65.3875H106.766V63.5046Z" fill="white"/>
<path d="M95.8768 70.4653H83.7983V72.3482H95.8768V70.4653Z" fill="white"/>
<path d="M123.663 70.4653H103.762V72.3482H123.663V70.4653Z" fill="white"/>
<path d="M125.165 93.6875H85.3003V95.5704H125.165V93.6875Z" fill="white"/>
<path d="M125.666 100.649H85.8013V102.532H125.666V100.649Z" fill="white"/>
<path d="M108.268 107.61H86.2388V109.492H108.268V107.61Z" fill="white"/>
<path d="M64.5228 31.438C64.0847 31.438 63.6466 31.2668 63.3337 31.0386L59.0781 27.387C58.3897 26.8164 58.3897 25.8464 59.0155 25.2188C59.6414 24.5912 60.7053 24.5912 61.3937 25.1617L64.3976 27.7864L71.2192 21.1107C71.845 20.483 72.9089 20.483 73.5973 21.0536C74.2857 21.6242 74.2857 22.5942 73.6599 23.2218L65.7119 30.9245C65.4615 31.2668 65.0235 31.438 64.5228 31.438Z" fill="#1FB299"/>
<path d="M66.9007 68.5827C66.4627 68.5827 66.0246 68.4115 65.7117 68.1833L61.456 64.5316C60.7676 63.9611 60.7676 62.9911 61.3935 62.3635C62.0193 61.7358 63.0832 61.7358 63.7716 62.3064L66.7756 64.931L73.5345 58.3695C74.1603 57.7418 75.2242 57.7418 75.9126 58.3124C76.6011 58.883 76.6011 59.8529 75.9752 60.4806L68.0272 68.1833C67.8395 68.4115 67.4014 68.5827 66.9007 68.5827C66.9633 68.5827 66.9633 68.5827 66.9007 68.5827Z" fill="#1FB299"/>
<path d="M69.3417 105.727C68.9036 105.727 68.4655 105.556 68.1526 105.328L63.897 101.676C63.2086 101.105 63.2086 100.135 63.8344 99.5077C64.4602 98.8801 65.5241 98.8801 66.2125 99.4507L69.2165 102.075L75.9754 95.5137C76.6012 94.8861 77.6651 94.8861 78.3536 95.4567C79.042 96.0273 79.042 96.9972 78.4161 97.6249L70.4681 105.328C70.2804 105.556 69.8423 105.727 69.3417 105.727C69.4042 105.727 69.3417 105.727 69.3417 105.727Z" fill="#1FB299"/>
</svg>
