<svg width="467" height="325" viewBox="0 0 467 325" fill="none" xmlns="http://www.w3.org/2000/svg">
<g clip-path="url(#clip0_134_4877)">
<path d="M413.769 325H52.7433L104.894 30.5314H466.038L413.769 325Z" fill="#F1F1F1"/>
<path d="M228.515 0H110.346L104.894 30.5314H231.36L228.515 0Z" fill="#F1F1F1"/>
<g opacity="0.1">
<path d="M413.769 325H52.7433L104.894 30.5314H466.038L413.769 325Z" fill="#777777"/>
<path d="M228.515 0H110.346L104.894 30.5314H231.36L228.515 0Z" fill="#777777"/>
</g>
<path d="M97.5456 12.4954C97.0715 10.7272 96.953 9.07685 96.953 7.30862C96.953 5.5404 97.0715 3.89005 97.5456 2.12183C98.0197 3.89005 98.1382 5.5404 98.1382 7.30862C98.1382 9.07685 98.0197 10.7272 97.5456 12.4954Z" fill="#747474"/>
<path d="M87.1155 15.4424C85.8117 14.1458 84.8635 12.7312 84.0338 11.3166C83.2042 9.78413 82.3745 8.25166 82.0189 6.60132C83.3227 7.89802 84.2709 9.3126 85.1006 10.7272C85.8117 12.2596 86.6414 13.7921 87.1155 15.4424Z" fill="#747474"/>
<path d="M79.5298 23.3405C77.752 22.869 76.2111 22.1617 74.7889 21.3365C73.3666 20.5114 71.8257 19.5683 70.6405 18.2716C72.4184 18.7431 73.9592 19.4504 75.3815 20.2756C76.8038 21.1008 78.2261 22.0438 79.5298 23.3405Z" fill="#747474"/>
<path d="M76.8038 33.832C75.0259 34.3035 73.3666 34.4214 71.5887 34.4214C69.8109 34.4214 68.1515 34.3035 66.3737 33.832C68.1515 33.3604 69.8109 33.2426 71.5887 33.2426C73.3666 33.2426 75.1445 33.3604 76.8038 33.832Z" fill="#747474"/>
<path d="M79.8854 44.3235C78.5817 45.6202 77.1594 46.5632 75.7371 47.3884C74.1963 48.2136 72.6554 49.0388 70.9961 49.3924C72.2999 48.0957 73.7222 47.1526 75.1444 46.3275C76.6853 45.5023 78.2261 44.795 79.8854 44.3235Z" fill="#747474"/>
<path d="M87.8265 51.8679C87.3524 53.6361 86.6413 55.1686 85.8116 56.5832C84.9819 57.9978 84.0337 59.5302 82.73 60.7091C83.2041 58.9408 83.9152 57.4084 84.7449 55.9938C85.5746 54.4613 86.5228 53.0467 87.8265 51.8679Z" fill="#747474"/>
<path d="M98.3752 54.4613C98.8493 56.2295 98.9678 57.8799 98.9678 59.6481C98.9678 61.4163 98.8493 63.0667 98.3752 64.8349C97.9011 63.0667 97.7826 61.4163 97.7826 59.6481C97.7826 57.8799 97.9011 56.1116 98.3752 54.4613Z" fill="#747474"/>
<path d="M108.924 51.3964C110.228 52.6931 111.176 54.1076 112.006 55.5222C112.835 57.0547 113.665 58.5871 114.02 60.2375C112.717 58.9408 111.769 57.5262 110.939 56.1116C110.109 54.6971 109.398 53.1646 108.924 51.3964Z" fill="#747474"/>
<path d="M116.51 43.6162C118.287 44.0877 119.828 44.795 121.25 45.6202C122.673 46.4454 124.214 47.3884 125.399 48.6851C123.621 48.2136 122.08 47.5063 120.658 46.6811C119.117 45.7381 117.695 44.795 116.51 43.6162Z" fill="#747474"/>
<path d="M119.117 33.0069C120.895 32.5354 122.554 32.4175 124.332 32.4175C126.11 32.4175 127.769 32.5354 129.547 33.0069C127.769 33.4784 126.11 33.5963 124.332 33.5963C122.554 33.5963 120.776 33.4784 119.117 33.0069Z" fill="#747474"/>
<path d="M116.035 22.6332C117.339 21.3365 118.761 20.3935 120.184 19.5683C121.725 18.7431 123.265 17.918 124.925 17.5643C123.621 18.861 122.199 19.8041 120.776 20.6293C119.354 21.3365 117.813 22.1617 116.035 22.6332Z" fill="#747474"/>
<path d="M108.213 15.0888C108.687 13.3206 109.398 11.7881 110.228 10.3735C111.057 8.95896 112.006 7.4265 113.309 6.24768C112.835 8.01591 112.124 9.54837 111.294 10.963C110.346 12.3775 109.398 13.7921 108.213 15.0888Z" fill="#747474"/>
<path d="M413.294 325H51.4396L0 41.1407H361.855L413.294 325Z" fill="#F1F1F1"/>
<path d="M125.399 214.663C133.712 214.663 140.451 207.96 140.451 199.692C140.451 191.423 133.712 184.721 125.399 184.721C117.085 184.721 110.346 191.423 110.346 199.692C110.346 207.96 117.085 214.663 125.399 214.663Z" fill="#747474"/>
<path d="M244.279 214.663C252.592 214.663 259.331 207.96 259.331 199.692C259.331 191.423 252.592 184.721 244.279 184.721C235.965 184.721 229.226 191.423 229.226 199.692C229.226 207.96 235.965 214.663 244.279 214.663Z" fill="#747474"/>
<path d="M206.469 217.138L205.64 215.606C205.521 215.488 197.817 201.224 182.172 201.224C167.949 201.224 164.393 214.663 164.275 215.252L163.801 217.02L160.363 216.195L160.719 214.427C160.719 214.309 164.986 197.688 182.053 197.688C199.832 197.688 208.366 213.366 208.721 213.955L209.551 215.488L206.469 217.138Z" fill="#747474"/>
</g>
<defs>
<clipPath id="clip0_134_4877">
<rect width="466.038" height="325" fill="white"/>
</clipPath>
</defs>
</svg>
