<svg width="96" height="47" viewBox="0 0 96 47" fill="none" xmlns="http://www.w3.org/2000/svg">
<path d="M50.4727 0.388646C44.8603 0.146992 39.405 0.998822 34.0161 2.5877C32.832 2.93809 31.9379 3.47577 31.2733 4.23698H31.2492L31.2371 4.27323C30.7115 4.88341 30.3309 5.62045 30.0892 6.5327C30.0107 6.82872 29.8838 7.11267 29.7207 7.54764C29.5153 6.59915 29.3461 5.82586 29.1709 5.02236C28.9595 5.08881 28.7903 5.12506 28.6393 5.19152C27.6002 5.6567 26.5369 6.06147 25.534 6.59915C24.1506 7.34224 22.8336 8.16386 21.5588 9.03986C21.5468 9.0459 21.5347 9.05194 21.5226 9.05798C18.6952 10.6831 16.3633 12.864 14.6355 14.8093C13.6266 15.7941 12.6479 16.8151 11.6873 17.8663C10.9563 18.6698 10.1407 19.7089 11.1556 24.2701C11.1254 24.2761 9.66343 22.3792 9.10158 21.3823C7.66978 23.6237 7.09585 25.9738 6.9569 28.4326C6.40714 32.287 7.29522 35.6399 7.29522 35.6399C9.69363 37.0898 12.0196 36.8119 13.983 36.5824C16.8708 36.244 19.541 35.2472 22.0724 33.8456C25.4072 31.997 28.3795 29.7013 30.8081 26.735C31.2431 26.2033 31.2129 25.8529 30.6148 25.4844C30.1496 25.2005 29.6361 24.983 29.1286 24.7836C28.4641 24.5299 26.2348 24.2761 25.2743 24.2338C25.4857 24.1372 27.5216 23.9982 27.715 24.0103C29.1166 24.0828 30.4577 24.4151 31.7083 25.0494C32.0889 25.2427 32.3124 25.273 32.6024 24.8924C33.5147 23.6841 34.4269 22.4637 35.4237 21.328C36.4387 20.1801 37.4597 19.0443 38.4867 17.9086L42.3713 13.6373C42.6311 13.3534 42.6975 13.1601 42.474 12.8157C42.0813 12.2116 41.749 11.5712 41.3382 10.8462C42.4559 10.9852 43.4346 11.106 44.4133 11.2268C44.6912 11.2631 44.9026 11.257 45.0295 10.9187C46.1411 7.94033 47.8206 5.28214 49.6753 2.73269C50.2069 2.00169 50.7688 1.28881 51.3729 0.497391C51.0225 0.455101 50.7506 0.400729 50.4727 0.388646Z" fill="white"/>
<path d="M7.1985 36.002C6.82394 36.4491 6.09898 37.319 6.38896 37.8325C6.62458 38.2494 6.4675 38.5333 6.15939 38.8596C4.49198 40.6478 2.595 42.5569 1.74921 43.5839C1.66463 43.6806 1.5438 43.7229 1.41694 43.7289C1.03633 43.7531 0.661767 44.2726 0.462402 44.1216C1.66463 42.3998 2.8004 40.678 4.0268 39.0167C9.29485 31.8879 12.1524 29.4472 7.19246 36.002H7.1985Z" fill="white"/>
<path d="M65.1049 45.1065L69.5755 26.5898L57.3478 42.0194H55.8073L51.0648 26.6985L46.5822 45.1065L44.9691 45.2032L43.3682 45.1065L49.5545 19.6906H52.3033L57.7345 37.5548L71.7262 19.6906H74.4751L68.325 45.1065H65.111H65.1049Z" fill="white"/>
<path d="M73.9194 42.2068L75.8466 39.3734C77.1757 41.0831 79.852 42.3155 82.8667 42.3155C86.9204 42.3155 89.0772 40.6119 89.6149 38.3947C91.1252 32.1842 75.9674 36.105 78.2692 26.6685C79.2237 22.7476 82.8485 19.4068 89.0107 19.4068C91.7595 19.4068 94.4117 20.2042 96.0006 21.6602L94.1882 24.5661C92.4905 23.1524 90.3398 22.4939 88.2616 22.4939C84.2743 22.4939 82.1236 24.3123 81.5859 26.5235C80.0756 32.734 95.2212 28.8494 92.9497 38.1772C92.0072 42.0618 88.3099 45.4027 82.1175 45.4027C78.535 45.4027 75.3331 44.0977 73.9194 42.2068Z" fill="white"/>
<path d="M0.56543 44.0494C3.85192 46.3814 8.0567 46.4358 11.8869 45.8981C17.8376 45.0765 23.1359 41.8625 29.1591 41.2765C31.1951 41.0831 33.3035 41.2281 35.2609 41.8383C37.2243 42.4243 38.9944 43.3728 40.825 44.0796C42.6495 44.8348 44.6008 45.2335 46.5884 45.1006C44.625 45.5175 42.5528 45.2335 40.6256 44.6536C36.9041 43.3607 33.2793 41.7718 29.286 42.4183C23.3715 43.0949 17.9766 46.3029 12.0077 46.8164C8.08691 47.2151 3.59819 46.7983 0.571471 44.0434H0.56543V44.0494Z" fill="white"/>
<path d="M41.3203 6.10364C34.1734 9.28139 27.7997 13.9574 22.2417 19.4248C18.2665 23.4 14.2913 28.3539 10.3161 32.3291C8.96281 33.7368 7.58539 35.1263 6.3892 36.6729L6.27441 36.6004C8.23181 33.1508 11.0169 30.2932 13.379 27.2182C14.5994 25.6776 15.856 24.1612 17.2032 22.7174C21.2811 18.434 25.8182 14.5615 30.766 11.3173C34.1009 9.21494 37.5988 7.38441 41.2659 5.97678L41.3203 6.10364Z" fill="black"/>
</svg>
